# xmcd
#
# Track frame offsets: 
#        150
#        17617
#        39656
#        62243
#        80590
#        99773
#        118881
#        142693
#        163740
#        181951
#        204205
#        220870
#        235786
#        263141
#        283490
#        302244
#        323068
#        341053
#
# Disc length: 4784 seconds
#
# Revision: 1
# Processed by: cddbd v1.5.2PL0 Copyright (c) Steve Scherf et al.
# Submitted via: ExactAudioCopy v1.1
#
DISCID=0212ae12
DTITLE=Various Artist - Akella Presents - vol,99 - Rockin' Blues  CD2
DYEAR=2016
DGENRE=Rockin' Blues
TTITLE0=Big Boy Bloater and The Limits - Robot Girlfriend
TTITLE1=The Rides - Only Teardrops Fall
TTITLE2=Magnus Berg - Cut Me Loose
TTITLE3=Johnny Neel - Mighty Mississippi
TTITLE4=Mike Pachelli - Do Your Dance
TTITLE5=ZZ Top - A Fool For Your Stockings
TTITLE6=Shake Your Hips - The Gathering
TTITLE7=The Blues Bones - Call Me
TTITLE8=The Righteous Blues Band - I'm A Christian Man
TTITLE9=Too Slim and The Taildraggers - When You Love Somebody
TTITLE10=B.B. And The Screaming Buddah Heads - Fire And Gasoline
TTITLE11=Andrea De Luca - Alone
TTITLE12=Bluebone - Big Love
TTITLE13=Chase Walker Band - New State of Mind
TTITLE14=Joe Bonamassa - You Left Me Nothin' But The Bill And The Blue
TTITLE14=s
TTITLE15=Gregg Allman - Whippin Post
TTITLE16=Stone - The Ballad Of John Lee
TTITLE17=Carl Wyatt and The Delta Voodoo Kings - You Got To Go
EXTD=
EXTT0=
EXTT1=
EXTT2=
EXTT3=
EXTT4=
EXTT5=
EXTT6=
EXTT7=
EXTT8=
EXTT9=
EXTT10=
EXTT11=
EXTT12=
EXTT13=
EXTT14=
EXTT15=
EXTT16=
EXTT17=
PLAYORDER=
